#!OML:ASF E:\Mandelcareful walks\Project 1\Capture day 1\Session 1\Subject1.ASF
:FULLY-SPECIFIED
:DEGREES
1780
root 8.56596 15.3311 9.33955 -173.573 93.4336 -183.19
lowerback 34.5278 -0.81711 -3.59528
upperback 9.39323 -1.20663 -0.0857686
thorax -7.03883 -0.160402 2.19498
lowerneck -32.0505 6.78433 1.86545
upperneck 23.6908 11.8206 -9.33599
head 14.1683 3.89722 -1.54592
rclavicle 8.34896e-015 1.59028e-014
rhumerus -22.2037 12.2245 -80.5649
rradius 53.1763
rwrist -23.7387
rhand -14.7672 -24.394
rfingers 7.12502
rthumb 11.3893 -54.0647
lclavicle 8.34896e-015 1.59028e-014
lhumerus -6.70615 -15.7548 76.3816
lradius 60.0906
lwrist 26.9965
lhand -30.2882 -15.1363
lfingers 7.12502
lthumb -3.59581 14.8131
rfemur -57.0655 -6.98504 17.0596
rtibia 36.416
rfoot 9.82713 1.74756
rtoes -20.3629
lfemur -37.3441 7.09061 -26.3121
ltibia 65.7174
lfoot -32.3836 0.616264
ltoes 22.0322
1781
root 8.70653 15.3245 9.3789 -170.851 93.1156 -180.407
lowerback 34.2235 -0.832145 -3.71526
upperback 9.4369 -1.24897 -0.0474549
thorax -6.87286 -0.185398 2.31227
lowerneck -31.3326 6.88212 2.35725
upperneck 23.1993 11.8437 -9.88576
head 13.9084 3.92507 -1.84488
rclavicle -1.98785e-015 -3.33958e-014
rhumerus -22.2243 12.1787 -80.7196
rradius 53.1312
rwrist -23.8057
rhand -14.9347 -24.7365
rfingers 7.12502
rthumb 11.2277 -54.416
lclavicle -1.98785e-015 -3.33958e-014
lhumerus -6.60744 -15.7052 76.2774
lradius 60.2299
lwrist 27.2206
lhand -30.0943 -15.0601
lfingers 7.12502
lthumb -3.40849 14.8924
rfemur -57.1697 -6.72252 16.7336
rtibia 36.0182
rfoot 11.4743 2.00482
rtoes -20.1104
lfemur -36.7768 7.10572 -26.1986
ltibia 65.9403
lfoot -32.3095 0.0634143
ltoes 21.4331
1782
root 8.85021 15.3241 9.42534 -167.991 92.7443 -177.495
lowerback 34.2951 -0.839787 -3.706
upperback 9.41723 -1.25048 -0.0216645
thorax -6.92032 -0.182763 2.33518
lowerneck -31.9524 6.82299 2.15196
upperneck 23.6383 11.8629 -9.70755
head 14.1852 3.89574 -1.73134
rclavicle 4.77083e-015 1.90833e-014
rhumerus -22.1082 11.9344 -80.832
rradius 53.0178
rwrist -23.9131
rhand -15.0546 -25.4134
rfingers 7.12502
rthumb 11.1121 -55.0992
lclavicle 4.77083e-015 1.90833e-014
lhumerus -6.4818 -15.7878 76.2083
lradius 60.4465
lwrist 27.1578
lhand -30.1534 -15.0123
lfingers 7.12502
lthumb -3.46559 14.9393
rfemur -57.2135 -6.56271 16.5249
rtibia 36.0048
rfoot 12.8327 2.38127
rtoes -18.9057
lfemur -36.2614 7.17183 -26.0388
ltibia 66.1881
lfoot -32.0686 -0.264873
ltoes 19.5744
1783
root 8.99459 15.321 9.47616 -167.442 92.325 -176.973
lowerback 34.2021 -0.886471 -3.68329
upperback 9.2907 -1.30705 0.0470646
thorax -7.02108 -0.211706 2.41671
lowerneck -31.4178 6.96925 2.4943
upperneck 23.4615 11.9932 -10.02
head 14.0697 3.968 -1.88792
rclavicle -3.97569e-015 1.66979e-014
rhumerus -22.3649 11.8088 -81.0636
rradius 53.0818
rwrist -23.8687
rhand -15.0307 -25.6513
rfingers 7.12502
rthumb 11.1352 -55.3359
lclavicle -3.97569e-015 1.66979e-014
lhumerus -6.82376 -15.8272 76.1965
lradius 60.7687
lwrist 27.085
lhand -30.3993 -15.2009
lfingers 7.12502
lthumb -3.70305 14.7467
rfemur -57.224 -6.45113 16.5172
rtibia 36.3468
rfoot 14.3611 2.53037
rtoes -18.588
lfemur -35.8859 7.2425 -25.726
ltibia 66.5406
lfoot -31.8598 -0.505214
ltoes 17.8686
1784
root 9.14974 15.3196 9.53832 -167.065 91.4276 -176.678
lowerback 33.9823 -1.13257 -3.54607
upperback 9.26061 -1.54611 0.219652
thorax -6.96049 -0.328928 2.60901
lowerneck -31.1372 7.08245 2.4925
upperneck 23.3338 12.0854 -9.87562
head 13.9536 4.04429 -1.81306
rclavicle -2.18663e-014 8.34896e-015
rhumerus -22.4687 11.7911 -81.2115
rradius 53.2275
rwrist -23.7918
rhand -15.0859 -25.3643
rfingers 7.12502
rthumb 11.0819 -55.0517
lclavicle -2.18663e-014 8.34896e-015
lhumerus -7.15224 -15.6648 76.2155
lradius 61.1862
lwrist 27.0496
lhand -30.6875 -15.265
lfingers 7.12502
lthumb -3.98136 14.6776
rfemur -57.1002 -6.57658 16.5295
rtibia 37.0437
rfoot 15.4512 2.38907
rtoes -9.93143
lfemur -35.4865 6.94638 -25.2208
ltibia 66.9193
lfoot -31.7394 -1.02252
ltoes 16.5031
1785
root 9.29985 15.3057 9.59992 -157.208 90.7406 -166.969
lowerback 33.7495 -1.30342 -3.70073
upperback 9.17812 -1.796 0.401884
thorax -6.93823 -0.45388 2.96975
lowerneck -30.8842 7.22241 2.7129
upperneck 23.2647 12.2327 -10.0489
head 13.9186 4.11602 -1.88781
rclavicle -5.1684e-015 8.74653e-015
rhumerus -22.5696 12.273 -81.2731
rradius 53.2854
rwrist -23.8699
rhand -15.2502 -24.977
rfingers 7.12502
rthumb 10.9234 -54.6729
lclavicle -5.1684e-015 8.74653e-015
lhumerus -7.60118 -15.1562 76.327
lradius 61.5662
lwrist 26.8785
lhand -30.6833 -15.0759
lfingers 7.12502
lthumb -3.97731 14.8667
rfemur -57.0988 -6.77933 16.6053
rtibia 37.9787
rfoot 15.2682 2.81662
rtoes -1.69749
lfemur -35.2833 6.84024 -24.9012
ltibia 67.4125
lfoot -31.6854 -1.54867
ltoes 14.5058
1786
root 9.44619 15.2881 9.66359 -85.515 90.2882 -95.422
lowerback 33.6376 -1.51287 -3.54218
upperback 9.23385 -1.99439 0.3479
thorax -6.8303 -0.54512 2.8952
lowerneck -31.6456 7.3227 2.93837
upperneck 23.5822 12.3256 -10.1005
head 14.2267 4.12246 -1.91415
rclavicle 2.5842e-014 -2.38542e-015
rhumerus -22.5686 12.2819 -81.4534
rradius 53.5429
rwrist -23.9088
rhand -15.1936 -24.6816
rfingers 7.12502
rthumb 10.978 -54.3746
lclavicle 2.5842e-014 -2.38542e-015
lhumerus -7.28141 -14.958 76.0505
lradius 61.66
lwrist 27.0664
lhand -30.2714 -15.0489
lfingers 7.12502
lthumb -3.57957 14.9008
rfemur -57.0222 -7.11229 16.7727
rtibia 39.0178
rfoot 13.1772 3.74715
rtoes 0.243984
lfemur -35.1756 6.73948 -24.6254
ltibia 67.9779
lfoot -31.5245 -2.00261
ltoes 12.9118
